<svg xmlns="http://www.w3.org/2000/svg" width="60.14" height="30.537" viewBox="0 0 60.14 30.537">
  <g id="Group_11323" data-name="Group 11323" transform="translate(0)">
    <path id="Path_7052" data-name="Path 7052" d="M231.088,302.972h10.8a1.067,1.067,0,1,0,0-2.134h-9.144l1.315-2.893a1.067,1.067,0,0,0-1.943-.883l-2,4.4a1.067,1.067,0,0,0,.971,1.508Z" transform="translate(-216.619 -290.437)" fill="#f37021"/>
    <path id="Path_7053" data-name="Path 7053" d="M260.338,302.972h11.6a1.067,1.067,0,1,0,0-2.134H261.4V297.5a1.067,1.067,0,1,0-2.134,0v4.4A1.067,1.067,0,0,0,260.338,302.972Z" transform="translate(-230.268 -290.437)" fill="#f37021"/>
    <path id="Path_7054" data-name="Path 7054" d="M257.569,310.693a8.063,8.063,0,0,0-.6-16.1H255.3a2.125,2.125,0,0,1-1.66-.794,1.071,1.071,0,0,0-.236-.217l-10.355-6.936a4.246,4.246,0,0,0-3.209-1.455h-18.9a4.261,4.261,0,0,0-3.89,2.513l-2.613,4.171a1.035,1.035,0,0,0-.077.149.932.932,0,0,1-.859.568h-1.53a7.075,7.075,0,0,0-7.068,7.067v4a7.068,7.068,0,0,0,5.854,6.949,5.86,5.86,0,0,0,11.61.118h23.612a5.859,5.859,0,0,0,11.6-.031Zm-50.539-7.037v-4a4.939,4.939,0,0,1,4.934-4.934h1.53a3.062,3.062,0,0,0,2.784-1.782l2.614-4.173a1.032,1.032,0,0,0,.078-.148,2.13,2.13,0,0,1,1.963-1.3h18.9a2.122,2.122,0,0,1,1.66.793,1.072,1.072,0,0,0,.236.217l10.355,6.936a4.246,4.246,0,0,0,3.209,1.455h1.671a5.932,5.932,0,0,1,.518,11.841,5.863,5.863,0,0,0-11.445.027H222.29a5.862,5.862,0,0,0-11.419-.127A4.939,4.939,0,0,1,207.03,303.657Zm9.534,9.935a3.734,3.734,0,1,1,3.734-3.734A3.738,3.738,0,0,1,216.564,313.591Zm35.2,0a3.734,3.734,0,1,1,3.734-3.734A3.738,3.738,0,0,1,251.768,313.591Z" transform="translate(-204.896 -285.188)" fill="#f37021"/>
    <path id="Path_7055" data-name="Path 7055" d="M269.138,312.938h-2.8a1.067,1.067,0,0,0,0,2.134h2.8a1.067,1.067,0,0,0,0-2.134Z" transform="translate(-233.067 -298.136)" fill="#f37021"/>
  </g>
</svg>
