<svg xmlns="http://www.w3.org/2000/svg" width="64" height="64" viewBox="0 0 64 64">
  <g id="Group_11336" data-name="Group 11336" transform="translate(-224 -477)">
    <rect id="Rectangle_9298" data-name="Rectangle 9298" width="64" height="64" transform="translate(224 477)" fill="none"/>
    <g id="Group_11319" data-name="Group 11319" transform="translate(226.182 480.636)">
      <path id="Path_7044" data-name="Path 7044" d="M552.344,327.718l-5.571,2.707a2.9,2.9,0,0,0-.331-.327l-.1-.087a5.231,5.231,0,0,0-5.518-.758l-5.785,2.637a3.079,3.079,0,0,1-2.495.025l-4.956-2.141a8.213,8.213,0,0,0-5.638-.32l-3.173.962-.53-2.572a1.069,1.069,0,0,0-1.26-.83l-7.313,1.506a1.068,1.068,0,0,0-.83,1.26l3.766,18.283a1.067,1.067,0,0,0,1.26.83l7.313-1.507a1.067,1.067,0,0,0,.83-1.26l-.464-2.253,1.724-.216a9.334,9.334,0,0,1,2.134-.019l10.141,1.079a7.285,7.285,0,0,0,4.875-1.228l15.149-10.347a3.161,3.161,0,0,0-3.224-5.424Zm-37.863,18.869-3.335-16.193,5.224-1.076,3.335,16.193Zm39.884-15.206-15.149,10.348a5.157,5.157,0,0,1-3.446.867l-10.141-1.079a11.436,11.436,0,0,0-2.624.024l-1.891.237-1.908-9.265,3.36-1.019a6.084,6.084,0,0,1,4.173.237l4.956,2.141a5.213,5.213,0,0,0,4.226-.043l5.784-2.637a3.088,3.088,0,0,1,3.259.448l.1.088a.821.821,0,0,1,.243.351.863.863,0,0,0,.026.086.842.842,0,0,1,.022.238.629.629,0,0,1-.27.506.7.7,0,0,1-.083.05l-10.116,5.233a4.91,4.91,0,0,1-3.147.39l-6.167-1.182a1.067,1.067,0,1,0-.4,2.1l6.167,1.182a7.079,7.079,0,0,0,4.55-.6l10.1-5.223a2.923,2.923,0,0,0,.305-.182,2.757,2.757,0,0,0,1.2-2.159c0-.022,0-.044,0-.065l5.814-2.826a1.028,1.028,0,0,1,1.059,1.76Z" transform="translate(-503.743 -291.581)" fill="#f37021"/>
      <rect id="Rectangle_9299" data-name="Rectangle 9299" width="2.349" height="1.88" transform="matrix(0.979, -0.202, 0.202, 0.979, 9.134, 39.823)" fill="#f37021"/>
      <path id="Path_7045" data-name="Path 7045" d="M508.569,290.746a1.067,1.067,0,0,0-1.067-1.067h-7.133a1.067,1.067,0,0,0,0,2.133H507.5A1.066,1.066,0,0,0,508.569,290.746Z" transform="translate(-499.302 -274.168)" fill="#f37021"/>
      <path id="Path_7046" data-name="Path 7046" d="M562.771,274.187a3.36,3.36,0,0,0-3.185,2.294h-2.364c.082-.3.157-.607.222-.909a12.213,12.213,0,0,0-1.6-9.852,10.949,10.949,0,0,0-7.409-4.988c-4.833-.766-9.471,1.929-11.146,3.048-1.675-1.119-6.313-3.814-11.146-3.048a10.948,10.948,0,0,0-7.409,4.988,12.313,12.313,0,0,0-1.608,9.934c1.973,9.114,11.538,19.161,19.535,23.987a1.065,1.065,0,0,0,1.1,0c7.178-4.331,15.594-12.8,18.754-21.026h3.067a3.359,3.359,0,1,0,3.185-4.427Zm-7.411.933c-.1.451-.22.905-.357,1.361h-8.9l-2.137-4.763a1.041,1.041,0,0,0-.992-.63,1.067,1.067,0,0,0-.969.664l-4.754,11.66-3.622-10.053a1.066,1.066,0,0,0-1.918-.187l-1.777,2.962h-3.529a1.067,1.067,0,1,0,0,2.133h4.132a1.067,1.067,0,0,0,.915-.518l.931-1.552,3.8,10.553a1.066,1.066,0,0,0,.981.705h.022a1.066,1.066,0,0,0,.987-.664l4.862-11.926,1.4,3.12a1.067,1.067,0,0,0,.973.63h8.813c-3.08,7.309-10.494,14.766-17.014,18.86-7.5-4.711-16.2-13.947-18-22.272a10.273,10.273,0,0,1,1.282-8.276,8.509,8.509,0,0,1,7.387-4.2c4.518,0,8.714,3.165,8.759,3.2a1.069,1.069,0,0,0,1.3,0c.051-.039,5.16-3.891,10.173-3.091a8.9,8.9,0,0,1,5.974,4.086A10.169,10.169,0,0,1,555.36,275.12Zm7.411,3.654A1.227,1.227,0,1,1,564,277.547,1.228,1.228,0,0,1,562.771,278.774Z" transform="translate(-507.445 -260.597)" fill="#f37021"/>
    </g>
  </g>
</svg>
