<svg xmlns="http://www.w3.org/2000/svg" width="64" height="64" viewBox="0 0 64 64">
  <g id="Group_10806" data-name="Group 10806" transform="translate(-116 -587)">
    <rect id="Rectangle_9300" data-name="Rectangle 9300" width="64" height="64" transform="translate(116 587)" fill="none"/>
    <g id="Group_11321" data-name="Group 11321" transform="translate(123.272 591.363)">
      <path id="Path_7047" data-name="Path 7047" d="M383.792,432.993a11.267,11.267,0,1,0-11.267-11.267A11.28,11.28,0,0,0,383.792,432.993Zm0-20.4a9.133,9.133,0,1,1-9.133,9.133A9.144,9.144,0,0,1,383.792,412.593Z" transform="translate(-367.853 -410.46)" fill="#f37021"/>
      <path id="Path_7048" data-name="Path 7048" d="M385.555,468.823h-3.812L376.6,458.1a12.489,12.489,0,0,0,8.3-.742,1.319,1.319,0,0,1,.548-.132h5.062a3.474,3.474,0,0,1,3.4,2.772,1.067,1.067,0,1,0,2.091-.424,5.615,5.615,0,0,0-5.488-4.481h-5.062a3.436,3.436,0,0,0-1.438.326,10.33,10.33,0,0,1-9.029-.206,1.063,1.063,0,0,0-.174-.069l-.022-.008a1.045,1.045,0,0,0-.265-.038c-.01,0-.02,0-.03,0h-5.123a5.606,5.606,0,0,0-5.6,5.6v12.693a5.606,5.606,0,0,0,5.6,5.6h.95v6.83a1.067,1.067,0,0,0,2.133,0v-6.83h13.107a5.082,5.082,0,0,0,0-10.164Zm-16.19,8.03a3.471,3.471,0,0,1-3.467-3.467V460.693a3.453,3.453,0,0,1,.8-2.211l5,10.34h-1.771a1.067,1.067,0,0,0,0,2.133h2.8l2.85,5.9h-6.21Zm8.58,0-9.435-19.52a3.447,3.447,0,0,1,.855-.107h4.451l9.413,19.627Zm7.649,0-2.827-5.9h2.789a2.948,2.948,0,0,1,.038,5.9Z" transform="translate(-363.765 -431.289)" fill="#f37021"/>
      <path id="Path_7049" data-name="Path 7049" d="M393.1,465.015v1.791a1.067,1.067,0,0,0,2.133,0v-1.791a1.067,1.067,0,0,0-2.133,0Z" transform="translate(-377.454 -435.421)" fill="#f37021"/>
      <path id="Path_7050" data-name="Path 7050" d="M436.98,466.448a1.019,1.019,0,0,0-1.124-1.006c-3.523.367-6.633-.829-9.511-3.649a1.018,1.018,0,0,0-1.428,0c-2.878,2.82-5.988,4.016-9.511,3.649a1.019,1.019,0,0,0-1.124,1.006c-.045,4.8.925,16.565,10.844,22.222a1.007,1.007,0,0,0,1.011,0C436.056,483.012,437.026,471.244,436.98,466.448ZM425.633,486.6c-7.874-4.842-9.185-14.23-9.3-19.054a13.1,13.1,0,0,0,9.3-3.627,13.135,13.135,0,0,0,9.3,3.627C434.813,472.368,433.5,481.757,425.633,486.6Z" transform="translate(-387.339 -434.279)" fill="#f37021"/>
      <path id="Path_7051" data-name="Path 7051" d="M427.445,482.46a1.067,1.067,0,0,0-1.508,1.509l2.75,2.75a1.066,1.066,0,0,0,.754.313h0a1.067,1.067,0,0,0,.755-.315l5.717-5.75a1.067,1.067,0,1,0-1.513-1.5l-4.963,4.992Z" transform="translate(-392.633 -442.514)" fill="#f37021"/>
    </g>
  </g>
</svg>
