<svg xmlns="http://www.w3.org/2000/svg" width="64" height="64" viewBox="0 0 64 64">
  <g id="Group_10807" data-name="Group 10807" transform="translate(-224 -587)">
    <rect id="Rectangle_9302" data-name="Rectangle 9302" width="64" height="64" transform="translate(224 587)" fill="none"/>
    <path id="Path_7056" data-name="Path 7056" d="M558.176,441.863c.013-.021.021-.045.032-.067s.034-.066.048-.1.021-.066.03-.1a.88.88,0,0,0,.025-.1c.006-.036.009-.073.012-.109s0-.064,0-.1a1.115,1.115,0,0,0-.012-.118c0-.023,0-.045-.006-.068s-.005-.017-.008-.026-.013-.045-.019-.068-.016-.067-.029-.1c-3.178-10.694-12.085-17.993-22.379-18.467v-2.266a1.067,1.067,0,1,0-2.133,0v2.266c-10.333.475-19.257,7.816-22.408,18.571a1.066,1.066,0,0,0,.724,1.323,1.048,1.048,0,0,0,.3.044c.011,0,.021,0,.033-.005a1.057,1.057,0,0,0,.628-.148,10.764,10.764,0,0,1,10.635,0,9.9,9.9,0,0,1,2.4,2.076c.013.017.03.028.043.044a.929.929,0,0,0,.078.089c.01.008.02.014.03.022s.052.04.078.059a1.042,1.042,0,0,0,.113.071c.028.015.057.028.085.041a1.093,1.093,0,0,0,.127.044c.029.008.058.017.088.022a1.08,1.08,0,0,0,.137.015c.022,0,.043.007.066.007l.017,0a1.045,1.045,0,0,0,.286-.047c.022-.006.044-.014.066-.022a1.07,1.07,0,0,0,.267-.143l.014-.008a.976.976,0,0,0,.086-.082c.015-.014.032-.026.046-.041a9.727,9.727,0,0,1,6.059-3.061v20.822a5.137,5.137,0,0,0,10.275,0v-2.59a1.067,1.067,0,1,0-2.133,0v2.59a3,3,0,0,1-6.008,0V441.347a14.158,14.158,0,0,1,5.7,2.559,1.055,1.055,0,0,0,.285.221c.133.107.261.214.381.321.01.009.021.014.031.023s.017.018.027.026.019.009.028.015a1.053,1.053,0,0,0,.274.146l.036.01a1.08,1.08,0,0,0,.312.051h0a1.062,1.062,0,0,0,.229-.026c.022,0,.044-.014.066-.021a1.142,1.142,0,0,0,.153-.053c.026-.012.05-.029.076-.044a1,1,0,0,0,.124-.078c.026-.02.049-.044.074-.066s.053-.043.076-.069.016-.024.026-.035.016-.014.022-.023a9.342,9.342,0,0,1,2.287-2.078,10.764,10.764,0,0,1,10.627,0,1.136,1.136,0,0,0,.19.091c.024.009.048.013.073.02a.935.935,0,0,0,.122.03c.033.005.066.006.1.009a.9.9,0,0,0,.1,0,1.023,1.023,0,0,0,.12-.013c.02,0,.041,0,.061-.006l.017-.005a1,1,0,0,0,.139-.043c.021-.008.042-.013.062-.022a1.031,1.031,0,0,0,.119-.065c.021-.012.043-.023.063-.037a1.038,1.038,0,0,0,.094-.079c.021-.019.044-.036.064-.057s.045-.054.067-.083a1.05,1.05,0,0,0,.063-.085C558.165,441.876,558.172,441.87,558.176,441.863Zm-16.884-1.329v.629a13.716,13.716,0,0,0-6.485-2.045,11.851,11.851,0,0,0-6.485,1.944v-.528c0-7.561,2.663-15.985,6.485-15.985S541.291,432.973,541.291,440.534ZM524.75,440.4a12.417,12.417,0,0,0-6.417-1.71,12.974,12.974,0,0,0-4.179.675,22.925,22.925,0,0,1,16.12-14.318c-2.468,3.153-4.085,8.85-4.085,15.488v.4c0,.144,0,.318,0,.5A11.77,11.77,0,0,0,524.75,440.4Zm20.23,0a10.146,10.146,0,0,0-1.555,1.185v-1.048c0-6.637-1.617-12.334-4.084-15.487a22.935,22.935,0,0,1,16.1,14.277,13,13,0,0,0-4.049-.636A12.42,12.42,0,0,0,544.98,440.4Z" transform="translate(-279.29 175.89)" fill="#f37021"/>
  </g>
</svg>
