<svg xmlns="http://www.w3.org/2000/svg" width="64" height="64" viewBox="0 0 64 64">
  <g id="Group_11334" data-name="Group 11334" transform="translate(-116 -477)">
    <rect id="Rectangle_9297" data-name="Rectangle 9297" width="64" height="64" transform="translate(116 477)" fill="rgba(255,255,255,0)"/>
    <g id="Group_11317" data-name="Group 11317" transform="translate(119.636 487.181)">
      <path id="Path_7038" data-name="Path 7038" d="M410.8,273.063H356.4a1.067,1.067,0,0,0-1.067,1.067v40.8A1.067,1.067,0,0,0,356.4,316h54.4a1.067,1.067,0,0,0,1.067-1.067v-40.8A1.066,1.066,0,0,0,410.8,273.063Zm-1.067,40.8H357.463V275.2H409.73Z" transform="translate(-355.33 -273.063)" fill="#f37021"/>
      <path id="Path_7039" data-name="Path 7039" d="M364.9,311.859a2.563,2.563,0,0,1,2.56,2.561,1.067,1.067,0,0,0,1.067,1.067h15.64a1.067,1.067,0,0,0,0-2.133h-14.7a4.709,4.709,0,0,0-3.5-3.5v-23.5a4.708,4.708,0,0,0,3.5-3.5h36.191a4.711,4.711,0,0,0,3.5,3.505v23.5a4.711,4.711,0,0,0-3.5,3.505h-14.7a1.067,1.067,0,1,0,0,2.133H406.6a1.067,1.067,0,0,0,1.067-1.067,2.563,2.563,0,0,1,2.56-2.561,1.066,1.066,0,0,0,1.067-1.067V285.406a1.066,1.066,0,0,0-1.067-1.067,2.563,2.563,0,0,1-2.56-2.561,1.067,1.067,0,0,0-1.067-1.067h-38.08a1.067,1.067,0,0,0-1.067,1.067,2.563,2.563,0,0,1-2.56,2.561,1.067,1.067,0,0,0-1.067,1.067v25.386A1.067,1.067,0,0,0,364.9,311.859Z" transform="translate(-359.297 -276.633)" fill="#f37021"/>
      <path id="Path_7040" data-name="Path 7040" d="M408.36,299.79a1.067,1.067,0,0,0,1.067-1.067V292.83a1.067,1.067,0,0,0-1.067-1.067H392.947a1.066,1.066,0,0,0-1.067,1.067v5.893a1.067,1.067,0,0,0,1.067,1.067ZM394.013,293.9h13.28v3.76h-13.28Z" transform="translate(-372.387 -281.79)" fill="#f37021"/>
      <path id="Path_7041" data-name="Path 7041" d="M374.455,312.38a1.067,1.067,0,0,0,1.067,1.067h34a1.067,1.067,0,1,0,0-2.133h-34A1.067,1.067,0,0,0,374.455,312.38Z" transform="translate(-364.255 -290.913)" fill="#f37021"/>
      <path id="Path_7042" data-name="Path 7042" d="M375.522,321.946h34a1.067,1.067,0,1,0,0-2.133h-34a1.067,1.067,0,0,0,0,2.133Z" transform="translate(-364.255 -294.88)" fill="#f37021"/>
      <path id="Path_7043" data-name="Path 7043" d="M404.53,331.373a2.5,2.5,0,0,0,3.745,0c.258-.247.276-.247.4-.247a1.067,1.067,0,0,0,0-2.133,2.538,2.538,0,0,0-1.872.841c-.258.247-.276.247-.4.247s-.138,0-.4-.247a2.505,2.505,0,0,0-3.745,0c-.257.247-.276.247-.395.247s-.137,0-.394-.247a2.5,2.5,0,0,0-3.743,0c-.257.247-.275.247-.394.247s-.137,0-.393-.247a2.538,2.538,0,0,0-1.872-.841,1.067,1.067,0,0,0,0,2.133c.119,0,.137,0,.394.246a2.5,2.5,0,0,0,3.743,0c.257-.246.275-.246.393-.246s.137,0,.394.246a2.5,2.5,0,0,0,3.743,0c.257-.247.275-.247.395-.247S404.272,331.126,404.53,331.373Z" transform="translate(-373.378 -299.164)" fill="#f37021"/>
      <circle id="Ellipse_626" data-name="Ellipse 626" cx="1.032" cy="1.032" r="1.032" transform="translate(27.234 36.745)" fill="#f37021"/>
    </g>
  </g>
</svg>
