<svg xmlns="http://www.w3.org/2000/svg" width="64" height="64" viewBox="0 0 64 64">
  <g id="Group_10805" data-name="Group 10805" transform="translate(-8 -587)">
    <rect id="Rectangle_9303" data-name="Rectangle 9303" width="64" height="64" transform="translate(8 587)" fill="none"/>
    <g id="Group_11326" data-name="Group 11326" transform="translate(14.545 591.363)">
      <path id="Path_7057" data-name="Path 7057" d="M285.707,480.217a1.067,1.067,0,0,0-1.306.756l-3.139,11.772a1.068,1.068,0,0,0,.756,1.306,1.089,1.089,0,0,0,.276.036,1.068,1.068,0,0,0,1.03-.792l3.138-11.773A1.067,1.067,0,0,0,285.707,480.217Z" transform="translate(-248.001 -444.143)" fill="#f37021"/>
      <path id="Path_7058" data-name="Path 7058" d="M291.056,467.585a1.066,1.066,0,0,0-1.305.756l-.717,2.691a1.067,1.067,0,1,0,2.061.549l.717-2.691A1.067,1.067,0,0,0,291.056,467.585Z" transform="translate(-251.627 -438.248)" fill="#f37021"/>
      <path id="Path_7059" data-name="Path 7059" d="M269.144,420.274a3.708,3.708,0,0,0-2.269-1.736l-21.755-5.8a3.733,3.733,0,0,0-4.569,2.645l-1.932,7.246H222.662a3.738,3.738,0,0,0-3.733,3.733v33.2a3.737,3.737,0,0,0,3.733,3.733H237.3l16.476,4.393a3.757,3.757,0,0,0,.968.128,3.738,3.738,0,0,0,3.6-2.773l11.18-41.937A3.712,3.712,0,0,0,269.144,420.274Zm-48.082,39.289v-33.2a1.6,1.6,0,0,1,1.6-1.6h25.493a1.6,1.6,0,0,1,1.6,1.6v33.2a1.6,1.6,0,0,1-1.6,1.6H222.662A1.6,1.6,0,0,1,221.062,459.563Zm46.4-37.006-11.18,41.937a1.6,1.6,0,0,1-1.957,1.134h0l-8.743-2.331h2.578a3.737,3.737,0,0,0,3.733-3.733v-14.4a1.055,1.055,0,0,0,.779-.751l.717-2.691a1.062,1.062,0,0,0-1.5-1.229V429.5l2.159,7.026,1.527.407-.281-6.619,4.2,1.12.738,1.833,1.146.3-.051-2.877,1.476-2.469-1.146-.306-1.553,1.222-4.2-1.12,3.538-5.6-1.527-.407-5.447,5.092-.58-.154v-.592a3.738,3.738,0,0,0-3.733-3.733h-7.329l1.785-6.7a1.6,1.6,0,0,1,1.958-1.134l21.756,5.8a1.6,1.6,0,0,1,1.133,1.958Z" transform="translate(-218.929 -412.61)" fill="#f37021"/>
      <path id="Path_7060" data-name="Path 7060" d="M240.467,442.234a10.7,10.7,0,1,0,10.7,10.7A10.712,10.712,0,0,0,240.467,442.234Zm7.58,6.722h-3.6a16.44,16.44,0,0,0-1.049-4.06A8.606,8.606,0,0,1,248.047,448.956Zm.987,3.979a8.566,8.566,0,0,1-.194,1.8h-4.174c.037-.6.055-1.2.055-1.8s-.02-1.232-.058-1.845h4.164A8.555,8.555,0,0,1,249.034,452.934Zm-8.567,8.566c-.4,0-1.347-1.583-1.829-4.632H242.3C241.814,459.917,240.866,461.5,240.467,461.5Zm-2.061-6.765c-.037-.568-.059-1.165-.059-1.8,0-.653.023-1.266.061-1.845h4.118c.038.58.062,1.193.062,1.845,0,.636-.023,1.234-.059,1.8Zm-6.505-1.8a8.555,8.555,0,0,1,.205-1.845h4.165c-.038.614-.058,1.233-.058,1.845s.019,1.2.055,1.8h-4.173A8.532,8.532,0,0,1,231.9,452.934Zm8.566-8.567c.4,0,1.338,1.569,1.822,4.588h-3.643C239.129,445.936,240.07,444.367,240.467,444.367Zm-2.932.528a16.465,16.465,0,0,0-1.049,4.06h-3.6A8.6,8.6,0,0,1,237.534,444.9Zm-4.669,11.973h3.614a16.533,16.533,0,0,0,1.055,4.1A8.6,8.6,0,0,1,232.865,456.869Zm10.534,4.1a16.5,16.5,0,0,0,1.055-4.1h3.614A8.605,8.605,0,0,1,243.4,460.973Z" transform="translate(-223.987 -426.435)" fill="#f37021"/>
      <path id="Path_7061" data-name="Path 7061" d="M250.1,491.4H230.834a1.067,1.067,0,1,0,0,2.133H250.1a1.067,1.067,0,1,0,0-2.133Z" transform="translate(-223.987 -449.38)" fill="#f37021"/>
    </g>
  </g>
</svg>
